# xmcd CD database file
#
# Track frame offsets:
#	150
#	25659
#	36721
#	62665
#	83373
#	97746
#	114395
#	129396
#	147592
#	168743
#	186633
#	200714
#	235099
#	256211
#	280264
#	298248
#
# Disc length: 4517 seconds
#
# Revision: 0
# Processed by: cddbd v1.5.1PL0 Copyright (c) Steve Scherf et al.
# Submitted via: CDex 1.51
#
DISCID=ef11a310
DTITLE=Ernst Dittke - Ellerbruch Soul
DYEAR=2003
DGENRE=Jazz
TTITLE0=Ellerbruch Soul
TTITLE1=Blues Within
TTITLE2=Whisper Not
TTITLE3=In My Solitude
TTITLE4=This Here
TTITLE5=Misterioso
TTITLE6=In Walked Bud
TTITLE7=Ballad for Pepper
TTITLE8=I´m an Old Cowhand
TTITLE9=Blues After Dark
TTITLE10=Line for Lyons
TTITLE11=Angel Eyes
TTITLE12=Now´s the Time
TTITLE13=Before My Time
TTITLE14=Django
TTITLE15=Senor Blues
EXTD=YEAR: 2003
EXTT0=
EXTT1=
EXTT2=
EXTT3=
EXTT4=
EXTT5=
EXTT6=
EXTT7=
EXTT8=
EXTT9=
EXTT10=
EXTT11=
EXTT12=
EXTT13=
EXTT14=
EXTT15=
PLAYORDER=
